<svg xmlns="http://www.w3.org/2000/svg" width="360" height="100" viewBox="0 0 360 100"><g transform="translate(10, 10) scale(0.48)"><circle cx="92" cy="52" r="18" fill="#E8453C"/><path fill="none" stroke="#E8453C" stroke-linecap="round" stroke-width="7" d="M92 70 Q92 88, 82 102 Q72 116, 56 126"/><path fill="none" stroke="#E8453C" stroke-linecap="round" stroke-width="6.5" d="M84 86 Q100 74, 120 66 Q132 62, 146 58"/><path fill="none" stroke="#E8453C" stroke-linecap="round" stroke-width="6" d="M78 102 Q66 122, 48 134 Q40 140, 32 144"/><path fill="none" stroke="#E8453C" stroke-linecap="round" stroke-width="6" d="M80 108 Q96 120, 116 138 Q126 148, 134 160"/><path stroke="#E8453C" stroke-linecap="round" stroke-width="3.5" d="M146 58 L156 48" opacity=".55"/><path stroke="#E8453C" stroke-linecap="round" stroke-width="2.5" d="M150 52 L162 42" opacity=".3"/><path stroke="#E8453C" stroke-linecap="round" stroke-width="1.5" d="M154 46 L168 38" opacity=".14"/></g><text x="115" y="44" fill="#1a1a1a" font-family="'Helvetica Neue', 'Arial', sans-serif" font-size="28" font-weight="600" letter-spacing="6">PUA</text><text x="115" y="70" fill="#888" font-family="'Helvetica Neue', 'Arial', sans-serif" font-size="13" font-weight="400" letter-spacing="4">SKILL</text></svg>